<svg xmlns="http://www.w3.org/2000/svg" viewBox="0 0 24 24" fill="#4479A1">
  <path d="M16.405 5.501c-.115 0-.193.014-.274.033v.013h.014c.054.104.146.18.214.274.096.127.186.256.273.388.054.08.092.166.139.248.05.099.103.194.15.292.033.07.065.141.095.213.026.06.049.12.072.181.04.108.075.217.108.327.023.06.043.12.063.181.033.104.06.21.084.317.013.06.023.12.033.181.02.122.034.245.044.369.005.06.008.12.01.181.003.108.004.217.004.327 0 .11-.001.219-.004.327-.002.061-.005.121-.01.181-.01.124-.024.247-.044.369-.01.061-.02.121-.033.181-.024.107-.051.213-.084.317-.02.061-.04.121-.063.181-.033.11-.068.219-.108.327-.023.061-.046.121-.072.181-.03.072-.062.143-.095.213-.047.098-.1.193-.15.292-.047.082-.085.168-.139.248-.087.132-.177.261-.273.388-.068.094-.16.17-.214.274h-.014v.013c.081.019.159.033.274.033.115 0 .193-.014.274-.033v-.013h-.014c-.054-.104-.146-.18-.214-.274-.096-.127-.186-.256-.273-.388-.054-.08-.092-.166-.139-.248-.05-.099-.103-.194-.15-.292-.033-.07-.065-.141-.095-.213-.026-.06-.049-.12-.072-.181-.04-.108-.075-.217-.108-.327-.023-.06-.043-.12-.063-.181-.033-.104-.06-.21-.084-.317-.013-.06-.023-.12-.033-.181-.02-.122-.034-.245-.044-.369-.005-.06-.008-.12-.01-.181-.003-.108-.004-.217-.004-.327 0-.11.001-.219.004-.327.002-.061.005-.121.01-.181.01-.124.024-.247.044-.369.01-.061.02-.121.033-.181.024-.107.051-.213.084-.317.02-.061.04-.121.063-.181.033-.11.068-.219.108-.327.023-.061.046-.121.072-.181.03-.072.062-.143.095-.213.047-.098.1-.193.15-.292.047-.082.085-.168.139-.248.087-.132.177-.261.273-.388.068-.094.16-.17.214-.274h.014v-.013c-.081-.019-.159-.033-.274-.033z"/>
  <text x="12" y="16" text-anchor="middle" fill="white" font-size="8" font-weight="bold">SQL</text>
</svg>
