<svg xmlns="http://www.w3.org/2000/svg" viewBox="0 0 128 128"><path fill="#007ACC" d="M2.2 2h123.6v123.6H2.2z"/><path fill="#FFF" d="M72 95.8c-1.3-1.6-2.2-3.3-2.6-5.1-.4-1.8-.4-4.8-.4-4.8h17.2s0 2.9.4 4.8c.4 1.7 1.5 3.3 3.3 4.2 1.6.8 3.5 1 5.3.6 1.7-.4 3.1-1.6 3.7-3.2.4-1.2.5-2.5.2-3.7-.3-1.2-1.1-2.2-2.1-3-2.8-2-12.8-5-16.7-6.9-3.7-1.8-6.6-4.9-7.9-8.9-1.3-4.1-1.3-8.6.1-12.6 1.4-4 4.5-7.3 8.3-9.1 3.9-1.8 8.4-2.1 12.6-1.1 4.1 1.1 7.6 3.6 9.8 7.3 2 3.3 2.6 7.3 3.1 11.2H89.4c-.1-2.5-.5-5-1.2-7.4-.5-1.7-1.8-3-3.5-3.5-1.7-.5-3.6-.3-5.2.5-1.4.7-2.4 2-2.7 3.5-.2 1.2-.1 2.5.3 3.6.5 1 1.5 1.8 2.5 2.4 2.8 1.5 12.4 4.5 16.5 6.6 3.9 1.9 6.8 5.2 7.9 9.3 1.2 4.1 1.1 8.5-.2 12.6-1.5 4-4.6 7.1-8.5 8.8-4.2 1.8-9 2-13.4.6-4.4-1.5-8-4.3-10.2-8.3zm-39.7-43v46.8h17.1V22.4H4.5v15.3h27.8v15.1z"/></svg>
